# xmcd CD database file
#
# Track frame offsets:
#	150
#	30148
#	43035
#	67923
#	90375
#	106643
#	129738
#	147103
#
# Disc length: 2268 seconds
#
# Revision: 2
# Processed by: cddbd v1.5.2PL0 Copyright (c) Steve Scherf et al.
# Submitted via: CDex 1.51
#
DISCID=5808da08
DTITLE=Sadao Watanabe - Bird Of Paradise
DYEAR=1977
DGENRE=Jazz
TTITLE0=Bird of Paradise
TTITLE1=Donna Lee
TTITLE2=Embraceable You
TTITLE3=Star Eyes
TTITLE4=Dexterity
TTITLE5=If I Should Lose You
TTITLE6=Yardbird Suite
TTITLE7=K.C. Blues
EXTD=YEAR: 1977
EXTT0=
EXTT1=
EXTT2=
EXTT3=
EXTT4=
EXTT5=
EXTT6=
EXTT7=
PLAYORDER=
